<?xml version="1.0" standalone="no"?>
<!DOCTYPE svg PUBLIC "-//W3C//DTD SVG 20010904//EN"
 "http://www.w3.org/TR/2001/REC-SVG-20010904/DTD/svg10.dtd">
<svg version="1.0" xmlns="http://www.w3.org/2000/svg"
 width="260.000000pt" height="260.000000pt" viewBox="0 0 260.000000 260.000000"
 preserveAspectRatio="xMidYMid meet">
<metadata>
Created by potrace 1.11, written by Peter Selinger 2001-2013
</metadata>
<g transform="translate(0.000000,260.000000) scale(0.100000,-0.100000)"
fill="#000000" stroke="none">
<path d="M1257 2584 c-1 -1 -40 -4 -87 -8 -235 -17 -494 -124 -690 -284 -525
-431 -626 -1193 -231 -1752 60 -85 209 -235 293 -294 437 -308 1010 -324 1450
-41 210 135 375 325 479 552 85 182 120 361 114 573 -2 69 -6 134 -8 145 -3
11 -8 40 -12 65 -22 134 -105 337 -197 475 -70 106 -241 277 -349 348 -182
120 -394 197 -588 213 -67 5 -171 10 -174 8z m153 -68 c151 -10 306 -57 463
-138 303 -158 546 -472 622 -803 33 -141 40 -370 16 -486 -6 -30 -13 -65 -16
-78 -10 -52 -59 -189 -93 -256 -302 -610 -1035 -862 -1642 -566 -236 116 -434
310 -554 543 -58 114 -87 196 -122 353 -3 17 -8 98 -10 180 -4 165 8 258 51
393 154 486 610 843 1101 861 38 1 70 4 72 6 2 2 9 2 15 0 7 -2 50 -6 97 -9z"/>
<path d="M1443 2433 c-18 -7 -16 -62 2 -69 8 -4 15 -16 15 -29 0 -13 20 -42
50 -73 28 -28 50 -57 50 -64 0 -7 -19 -31 -41 -54 l-42 -42 0 -104 c0 -57 -4
-106 -10 -109 -5 -4 -10 -24 -10 -45 -1 -39 1 -41 53 -35 6 1 10 19 10 41 0
22 -4 40 -10 40 -6 0 -10 40 -10 100 l0 99 40 43 c54 58 52 82 -10 143 -51 50
-62 78 -35 89 18 7 20 47 3 64 -12 12 -33 14 -55 5z m45 -36 c2 -12 -3 -17
-17 -17 -12 0 -21 6 -21 13 0 31 32 34 38 4z"/>
<path d="M1172 2318 c-16 -16 -15 -43 3 -58 12 -10 15 -45 15 -191 0 -113 -4
-179 -10 -179 -14 0 -12 -78 2 -82 7 -3 22 -3 33 0 17 3 21 11 21 43 0 24 -4
39 -12 39 -9 0 -12 44 -12 180 0 101 5 180 10 180 15 0 26 44 16 63 -10 20
-48 23 -66 5z m48 -28 c0 -21 -24 -28 -35 -10 -8 14 3 30 21 30 8 0 14 -9 14
-20z"/>
<path d="M878 2259 c-27 -15 -23 -57 7 -71 21 -9 29 -8 48 9 35 31 80 24 126
-21 l38 -38 1 -124 c1 -99 -2 -124 -13 -124 -10 0 -13 -12 -12 -40 1 -22 6
-40 10 -40 4 0 18 0 32 0 22 0 25 4 25 39 0 22 -5 41 -11 43 -6 2 -10 50 -10
131 l0 127 -44 42 c-35 34 -51 42 -85 44 -22 1 -49 9 -59 18 -20 18 -29 19
-53 5z m39 -43 c-4 -9 -11 -16 -17 -16 -17 0 -24 31 -9 41 18 11 34 -5 26 -25z"/>
<path d="M1405 2200 c-10 -11 -21 -18 -24 -15 -4 2 -26 -16 -50 -40 l-42 -43
-1 -105 c-1 -69 -5 -108 -12 -110 -7 -3 -10 -21 -8 -44 3 -34 7 -39 25 -37 12
1 25 3 30 3 11 1 8 81 -3 81 -6 0 -10 40 -10 101 l0 101 39 38 38 38 21 -21
c18 -18 25 -19 47 -9 31 14 34 56 6 72 -27 14 -35 13 -56 -10z m55 -25 c0 -21
-19 -28 -36 -15 -10 9 -11 16 -3 26 12 15 39 8 39 -11z"/>
<path d="M840 2145 c-16 -19 -9 -45 16 -61 18 -13 24 -12 46 5 l25 20 36 -37
c36 -36 37 -40 37 -110 0 -41 -4 -72 -10 -72 -10 0 -14 -72 -5 -82 3 -2 18 -3
34 0 26 4 29 7 28 43 -1 23 -6 39 -13 39 -8 0 -12 24 -12 76 0 76 0 76 -43
120 -24 24 -48 44 -55 44 -7 0 -14 7 -18 15 -7 19 -50 19 -66 0z m50 -25 c0
-21 -24 -28 -35 -10 -8 14 3 30 21 30 8 0 14 -9 14 -20z"/>
<path d="M1670 2134 c-19 -14 -49 -40 -66 -57 -30 -31 -31 -36 -30 -106 2 -49
-2 -75 -10 -78 -6 -2 -12 -23 -12 -47 -1 -42 -1 -42 32 -38 31 4 33 6 32 40 0
21 -5 40 -11 44 -5 4 -10 37 -10 74 -1 67 -1 69 38 107 22 21 42 35 46 29 10
-15 45 -30 59 -25 22 8 34 41 22 63 -14 26 -47 24 -90 -6z m74 -9 c3 -9 -1
-18 -10 -22 -19 -7 -39 11 -30 26 10 16 33 13 40 -4z"/>
<path d="M1365 2070 c-19 -21 -19 -44 0 -60 17 -14 22 -120 5 -120 -5 0 -10
-17 -10 -39 0 -40 18 -55 50 -42 19 8 23 81 4 81 -21 0 -16 98 6 120 25 25 16
67 -16 73 -14 2 -30 -3 -39 -13z m48 -16 c9 -10 -4 -34 -18 -34 -17 0 -28 17
-20 30 7 11 28 13 38 4z"/>
<path d="M881 1695 c-59 -60 -90 -85 -107 -85 -13 0 -24 -4 -24 -10 0 -6 -31
-10 -73 -10 -72 0 -73 1 -112 40 -36 37 -38 41 -21 53 38 27 -2 96 -41 71 -24
-15 -29 -62 -9 -70 9 -3 16 -11 16 -18 0 -7 19 -31 43 -54 42 -42 44 -42 115
-42 41 0 72 -4 72 -10 0 -5 16 -10 35 -10 24 0 35 -5 35 -15 0 -14 -12 -20
-34 -16 -5 1 -16 -4 -25 -12 -11 -10 -45 -15 -106 -16 l-91 -1 -39 40 c-56 57
-86 55 -150 -10 -45 -46 -85 -65 -85 -40 0 5 -9 14 -20 20 -27 15 -60 -4 -60
-33 0 -43 44 -63 70 -32 7 8 22 15 34 15 13 0 42 21 71 50 27 28 57 50 67 50
10 0 37 -18 60 -40 l43 -40 102 0 c62 0 103 -4 103 -10 0 -5 14 -10 30 -10 20
0 30 -5 30 -15 0 -10 -10 -15 -29 -15 -16 0 -31 -5 -33 -12 -6 -17 -98 -10
-119 8 -24 22 -54 17 -67 -11 -10 -21 -9 -28 8 -45 25 -25 34 -25 57 -1 21 22
108 28 120 8 4 -7 19 -13 33 -13 15 0 25 -5 25 -14 0 -10 -9 -14 -25 -14 -14
1 -28 -4 -32 -11 -6 -10 -34 -13 -103 -12 l-95 1 -37 38 c-36 36 -36 38 -19
57 28 30 14 71 -23 71 -39 0 -57 -23 -43 -55 7 -14 16 -25 22 -25 6 0 9 -4 6
-9 -3 -5 15 -29 40 -54 l45 -45 102 0 c61 -1 103 -5 105 -12 2 -5 17 -10 33
-10 19 0 29 -5 29 -15 0 -10 -10 -15 -30 -15 -16 0 -30 -4 -30 -10 0 -6 -66
-10 -179 -10 -146 0 -181 3 -191 15 -15 18 -42 19 -58 3 -18 -18 -15 -56 6
-66 19 -10 62 1 62 17 0 15 348 12 357 -3 5 -7 19 -12 33 -12 35 1 39 -29 4
-32 -15 -1 -32 -6 -38 -11 -6 -4 -67 -9 -136 -10 l-124 -1 -42 -41 c-36 -35
-41 -46 -39 -80 2 -26 -4 -46 -16 -60 -23 -27 -24 -43 -3 -63 20 -21 37 -20
57 2 21 23 21 36 0 57 -9 9 -17 33 -18 53 -1 29 6 45 34 75 l35 37 128 0 c79
0 128 -4 128 -10 0 -5 14 -10 30 -10 20 0 30 -5 30 -15 0 -10 -10 -15 -30 -15
-16 0 -30 -4 -30 -10 0 -6 -32 -10 -76 -10 -74 0 -76 0 -120 -42 -24 -23 -44
-45 -44 -51 0 -5 -9 -20 -20 -34 -34 -43 10 -89 56 -58 25 16 24 35 -4 67 -13
16 -11 21 26 57 40 39 44 40 107 40 48 -1 68 -5 72 -15 3 -8 10 -14 17 -13 43
5 46 0 46 -64 0 -110 -41 -102 484 -104 l455 -3 21 27 c18 23 21 38 18 85 -3
61 -1 63 45 58 10 -1 26 5 35 13 12 10 38 14 85 13 65 -1 69 -2 103 -40 32
-35 34 -40 20 -55 -36 -40 -1 -95 44 -71 24 13 26 52 5 70 -8 7 -15 18 -15 24
0 7 -20 31 -45 54 -45 42 -46 42 -120 42 -43 0 -75 4 -75 10 0 6 -18 10 -40
10 -29 0 -40 4 -40 15 0 11 11 15 40 15 22 0 40 5 40 10 0 6 41 10 103 10
l103 0 39 -40 c52 -53 73 -52 138 10 48 46 87 64 87 41 0 -14 37 -23 60 -16
20 6 25 29 14 59 -8 21 -63 21 -70 1 -4 -8 -16 -15 -29 -15 -14 0 -43 -19 -74
-50 -28 -28 -57 -50 -63 -50 -7 0 -31 19 -54 41 l-43 42 -96 -1 c-62 -1 -104
3 -118 11 -12 7 -34 12 -49 11 -20 -1 -28 4 -28 16 0 13 8 17 40 15 22 -1 41
3 44 10 2 6 26 12 52 13 36 2 52 -2 66 -18 23 -25 33 -25 58 0 24 24 25 34 4
54 -20 21 -43 20 -66 -1 -20 -18 -110 -20 -116 -3 -2 6 -21 10 -43 10 -28 0
-39 4 -39 15 0 11 11 15 40 15 22 0 40 5 40 10 0 6 41 10 103 10 l103 0 32
-33 c37 -38 38 -44 16 -68 -33 -36 11 -83 56 -59 25 14 26 45 1 67 -11 9 -18
20 -16 23 2 4 -16 26 -40 50 l-45 44 -99 -2 c-73 -1 -102 2 -108 11 -4 7 -24
13 -43 13 -24 -1 -36 4 -38 15 -2 12 6 15 37 13 25 -1 42 3 45 11 6 15 356 19
356 4 0 -16 43 -28 63 -17 20 10 23 48 5 66 -16 16 -38 15 -59 -4 -15 -13 -46
-16 -191 -15 -107 0 -174 5 -176 11 -2 5 -21 10 -43 10 -28 0 -39 4 -39 15 0
11 11 15 40 15 22 0 40 5 40 10 0 6 49 10 128 10 l127 0 44 40 c39 35 45 45
46 84 0 27 8 52 18 64 31 34 15 72 -30 72 -34 0 -49 -35 -28 -67 9 -14 18 -41
19 -61 2 -32 -4 -42 -38 -73 l-40 -36 -110 -1 c-77 -1 -117 3 -132 12 -11 8
-34 13 -52 11 -26 -2 -32 1 -32 17 0 16 6 19 34 17 19 -2 40 2 47 8 8 6 45 11
83 11 67 0 69 1 112 43 24 24 44 48 44 55 0 7 7 14 15 18 18 7 20 47 3 64 -16
16 -38 15 -59 -4 -19 -17 -15 -42 9 -62 14 -11 11 -17 -23 -52 -39 -39 -40
-40 -112 -40 -42 0 -73 4 -73 10 0 6 -18 10 -40 10 l-40 0 -1 53 c0 28 -2 61
-4 72 -8 44 -18 45 -430 45 l-391 0 -83 -85z m-343 22 c2 -12 -3 -17 -17 -17
-12 0 -21 6 -21 13 0 31 32 34 38 4z m1580 0 c2 -12 -3 -17 -17 -17 -12 0 -21
6 -21 13 0 31 32 34 38 4z m108 -18 c9 -15 -11 -33 -30 -26 -9 4 -13 13 -10
22 7 17 30 20 40 4z m-540 -406 l-1 -388 -387 -1 -388 -1 0 341 0 340 47 48
47 48 342 0 341 0 -1 -387z m-1426 172 c0 -19 -13 -25 -29 -15 -19 11 -6 41
14 34 8 -3 15 -12 15 -19z m228 -32 c5 -18 -28 -29 -38 -12 -5 7 -6 17 -3 22
7 12 35 5 41 -10z m130 -46 c2 -12 -3 -17 -17 -17 -12 0 -21 6 -21 13 0 31 32
34 38 4z m1670 0 c2 -12 -3 -17 -17 -17 -12 0 -21 6 -21 13 0 31 32 34 38 4z
m-1921 -183 c8 -20 -8 -36 -26 -25 -15 10 -8 41 9 41 6 0 13 -7 17 -16z m1672
3 c13 -16 5 -27 -21 -27 -18 0 -25 20 -11 33 10 10 19 8 32 -6z m137 -54 c-3
-8 -6 -17 -6 -19 0 -2 -6 -4 -14 -4 -18 0 -27 25 -14 38 14 14 40 3 34 -15z
m222 -30 c-5 -26 -38 -29 -38 -4 0 15 6 21 21 21 14 0 19 -5 17 -17z m-1958
-233 c0 -13 -26 -19 -40 -10 -11 7 -11 11 -1 24 11 12 17 14 27 5 8 -6 14 -15
14 -19z m98 -23 c2 -12 -3 -17 -17 -17 -12 0 -21 6 -21 13 0 31 32 34 38 4z
m1580 0 c2 -12 -3 -17 -17 -17 -12 0 -21 6 -21 13 0 31 32 34 38 4z"/>
<path d="M998 742 c-14 -3 -18 -13 -18 -43 0 -21 5 -39 10 -39 6 0 10 -31 10
-72 0 -70 -1 -74 -37 -110 l-36 -37 -25 20 c-22 17 -28 18 -46 5 -25 -16 -32
-42 -16 -61 16 -19 59 -19 66 0 4 8 11 15 18 15 7 0 31 20 55 44 41 42 42 44
42 112 0 38 5 75 12 83 6 7 12 28 13 46 2 34 -12 45 -48 37z m-108 -312 c0
-11 -6 -20 -14 -20 -18 0 -29 16 -21 30 11 18 35 11 35 -10z"/>
<path d="M1082 736 c-12 -19 -10 -76 3 -76 9 0 12 -28 12 -99 l1 -99 -39 -38
c-56 -54 -53 -84 12 -150 52 -53 54 -59 25 -99 -20 -28 -4 -65 27 -65 43 0 63
44 32 70 -8 7 -15 22 -15 34 0 13 -21 42 -50 71 -28 28 -50 58 -50 70 0 12 18
38 40 60 l40 39 -2 100 c-1 68 3 101 10 104 7 2 12 21 12 42 0 32 -4 38 -25
42 -14 3 -29 0 -33 -6z m63 -586 c0 -8 -8 -16 -17 -18 -13 -2 -18 3 -18 18 0
15 5 20 18 18 9 -2 17 -10 17 -18z"/>
<path d="M1174 741 c-9 -9 -3 -81 6 -81 17 0 12 -101 -6 -121 -36 -40 11 -93
55 -63 22 16 21 52 -3 70 -19 14 -20 110 -1 118 11 4 14 32 6 76 -1 6 -51 7
-57 1z m50 -226 c3 -9 -1 -18 -10 -22 -19 -7 -39 11 -30 26 10 16 33 13 40 -4z"/>
<path d="M1293 742 c-13 -2 -24 -11 -24 -20 -2 -29 3 -57 11 -62 4 -3 7 -48 8
-102 l1 -96 -41 -41 c-40 -40 -42 -40 -56 -20 -17 25 -50 22 -69 -7 -12 -19
-11 -24 6 -45 16 -21 21 -22 42 -11 55 29 70 40 103 77 l36 39 0 103 c0 62 4
103 10 103 11 0 14 77 3 82 -5 2 -18 2 -30 0z m-116 -358 c8 -21 -13 -42 -28
-27 -13 13 -5 43 11 43 6 0 13 -7 17 -16z"/>
<path d="M1378 742 c-14 -3 -17 -13 -16 -43 1 -21 5 -39 10 -39 4 0 8 -80 8
-179 0 -146 -3 -181 -15 -191 -31 -26 -11 -70 32 -70 29 0 48 33 33 60 -6 11
-15 20 -19 20 -14 0 -11 354 3 362 6 4 11 23 11 42 1 36 -12 46 -47 38z m35
-468 c9 -10 -4 -34 -18 -34 -17 0 -28 17 -20 30 7 11 28 13 38 4z"/>
<path d="M1485 742 c-11 -2 -23 -8 -26 -13 -7 -12 1 -69 11 -69 4 0 7 -59 7
-131 l1 -131 42 -43 c38 -38 46 -42 86 -41 31 1 48 -3 59 -16 24 -29 57 -21
69 18 4 14 1 28 -9 38 -21 21 -37 20 -62 -2 -34 -29 -85 -21 -127 18 l-36 34
0 128 c0 79 4 128 10 128 11 0 14 77 3 83 -5 2 -17 2 -28 -1z m225 -402 c13
-9 12 -12 -4 -25 -22 -16 -39 -3 -29 22 6 16 13 16 33 3z"/>
<path d="M1568 743 c-13 -3 -18 -14 -18 -43 0 -21 5 -40 12 -42 8 -3 12 -31
13 -79 1 -68 3 -76 31 -104 77 -78 134 -103 150 -67 18 41 -14 79 -50 60 -11
-6 -24 -15 -27 -20 -3 -5 -23 7 -44 26 -37 34 -38 38 -40 107 -1 45 2 72 10
75 6 3 11 20 10 40 0 37 -17 54 -47 47z m172 -313 c0 -21 -24 -28 -35 -10 -8
14 3 30 21 30 8 0 14 -9 14 -20z"/>
</g>
</svg>
