<svg id="Layer_1" data-name="Layer 1" xmlns="http://www.w3.org/2000/svg" viewBox="0 0 583.89 111.41"><defs><style>.cls-1{fill:#fff;}.cls-2,.cls-3{fill:none;stroke:#fff;stroke-miterlimit:10;}.cls-3{stroke-width:5px;}</style></defs><title>Artboard 1</title><path class="cls-1" d="M190.73,31.67q3.12.79,3.12,2.81v3.6q7.12-6.42,15.56-6.42,9.27,0,16.44,7.73,5.23,6.46,5.23,13.58V73.86q0,2.15-3.12,2.77h-.18q-3.12-.57-3.12-3.12V55.14q0-12.35-10.63-16.26a19,19,0,0,0-4.61-.66h-.48q-8.92,0-13.8,9.23-1.28,2.81-1.27,9V73.69q0,2.42-3.12,2.94h-.18q-2.5,0-3.12-3.3V35.45Q187.83,31.67,190.73,31.67Z"/><path class="cls-1" d="M252.33,31.67q3.12.79,3.12,2.81v3.6q7.12-6.42,15.56-6.42,9.27,0,16.44,7.73,5.23,6.46,5.23,13.58V73.86q0,2.15-3.12,2.77h-.18q-3.12-.57-3.12-3.12V55.14q0-12.35-10.63-16.26a19,19,0,0,0-4.61-.66h-.48q-8.92,0-13.8,9.23-1.27,2.81-1.27,9V73.69q0,2.42-3.12,2.94h-.18q-2.5,0-3.12-3.3V35.45Q249.43,31.67,252.33,31.67Z"/><path class="cls-1" d="M331.07,31.59q13,0,20.21,12.35a22.82,22.82,0,0,1,2.46,10.5v.83q-.57,3.3-3.12,3.3H316a16.38,16.38,0,0,0,8.35,10,17.28,17.28,0,0,0,15.82-1h1q2.94.57,2.94,3V71q0,4-11.82,5.58h-1.14q-12.13,0-19.42-11.34a23,23,0,0,1-2.94-11.21q0-12.35,11.69-19.69A24.13,24.13,0,0,1,331.07,31.59ZM315.43,52.15H347q0-3.38-4-8.75-5.41-5.1-10.68-5.1h-1.8q-7.91,0-13,7.73A16.65,16.65,0,0,0,315.43,52.15Z"/><path class="cls-1" d="M391.49,31.54q8.7,0,15.82,6.55a3.48,3.48,0,0,1,.48,1.67v.18q-.57,3.12-3.12,3.12h-.18q-1.19,0-5.27-3.12A16,16,0,0,0,392,38.09h-1q-9.58,0-14.5,10.06a19.31,19.31,0,0,0-1.14,6.11q0,9.76,10.06,14.81a18,18,0,0,0,6.42,1.14q5.67,0,11.16-4.61l1.32-.31h.53q2.42,0,2.94,3.12v.13q0,3.38-10.55,7.43a32.2,32.2,0,0,1-5.27.66h-1.32q-9.1,0-16.92-8.57a23.9,23.9,0,0,1-4.79-14q0-11,9.71-18.46A23,23,0,0,1,391.49,31.54Z"/><path class="cls-1" d="M433.84,15.55h.62q2.9.62,2.9,2.59v14.5H444l1.45-.18q2.24,0,3,3.25,0,2.2-2.72,3.21l-2.42-.18h-6V62.44q0,6.2,4,7.6l3.69.31h1.8q2.11,0,2.72,3.08v.13q-.53,3.08-3.08,3.08h-3.38q-7.69,0-11.43-8.39a15.94,15.94,0,0,1-.66-4.83V38.75h-3.21l-2.59.18q-2.72-1-2.72-3.21.53-3.08,2.9-3.08v-.18l1.63.18h4V19.11Q431.47,15.55,433.84,15.55Z"/><path class="cls-1" d="M485.78,31.59q13,0,20.21,12.35a22.82,22.82,0,0,1,2.46,10.5v.83q-.57,3.3-3.12,3.3H470.66a16.38,16.38,0,0,0,8.35,10,17.28,17.28,0,0,0,15.82-1h1q2.94.57,2.94,3V71q0,4-11.82,5.58h-1.14q-12.13,0-19.42-11.34a23,23,0,0,1-2.94-11.21q0-12.35,11.69-19.69A24.13,24.13,0,0,1,485.78,31.59ZM470.13,52.15h31.6q0-3.38-4-8.75-5.41-5.1-10.68-5.1h-1.8q-7.91,0-13,7.73A16.65,16.65,0,0,0,470.13,52.15Z"/><path class="cls-1" d="M565.31,13.7H566q3,.62,3,2.68V49.25l.18,5.63q0,6.5-5.32,13.62-7.51,8.13-16.92,8.13h-1.32q-9.18,0-17.09-8.61a24.26,24.26,0,0,1-4.83-14.15q0-11,9.8-18.59a23.17,23.17,0,0,1,13-4.13q8.66,0,16.26,6.81V19.19l-.18-2.64Q563.42,13.7,565.31,13.7Zm-35.2,39.68v.83q0,10.15,10.63,15.12a18.53,18.53,0,0,0,5.14.83h1q9.89,0,14.94-10.63a21.3,21.3,0,0,0,.83-5v-1q0-10.11-10.81-15.12a22.52,22.52,0,0,0-5.14-.83h-.66q-9.89,0-14.94,10.46A16.56,16.56,0,0,0,530.11,53.38Z"/><path class="cls-1" d="M132.33,36H101.42l-6.31,6.31V73.27a2.43,2.43,0,0,0,2.43,2.43h34.8a2.43,2.43,0,0,0,2.43-2.43V38.47A2.43,2.43,0,0,0,132.33,36Zm-1.46,35.77H99V44l4-4h27.85Z"/><rect class="cls-1" x="102.07" y="31.57" width="2.47" height="3.27"/><rect class="cls-1" x="105.94" y="31.57" width="2.47" height="3.27"/><rect class="cls-1" x="109.82" y="31.57" width="2.47" height="3.27"/><rect class="cls-1" x="113.69" y="31.57" width="2.47" height="3.27"/><rect class="cls-1" x="117.57" y="31.57" width="2.47" height="3.27"/><rect class="cls-1" x="125.32" y="31.57" width="2.47" height="3.27"/><rect class="cls-1" x="121.44" y="31.57" width="2.47" height="3.27"/><polyline class="cls-2" points="103.31 31.72 103.31 25.48 100.07 22.25 99.12 22.25"/><circle class="cls-2" cx="97.65" cy="22.25" r="1.32"/><polyline class="cls-2" points="126.56 31.72 126.56 25.48 129.79 22.25 130.74 22.25"/><circle class="cls-2" cx="132.21" cy="22.25" r="1.32"/><polyline class="cls-2" points="114.93 31.72 114.93 23.2 118.16 19.97 119.12 19.97"/><circle class="cls-2" cx="120.59" cy="19.97" r="1.32"/><polyline class="cls-2" points="122.68 31.72 122.68 23.2 125.92 19.97 125.92 18.19 121.91 14.18 121.91 12.19"/><polyline class="cls-2" points="107.18 31.72 107.18 21.15 103.95 17.92 100.26 17.92"/><line class="cls-2" x1="111.06" y1="31.72" x2="111.06" y2="16.6"/><circle class="cls-2" cx="98.79" cy="17.92" r="1.32"/><circle class="cls-2" cx="111.06" cy="15.27" r="1.32"/><circle class="cls-2" cx="121.91" cy="10.87" r="1.32"/><line class="cls-2" x1="118.81" y1="31.72" x2="118.81" y2="26.7"/><circle class="cls-2" cx="118.81" cy="25.38" r="1.32"/><rect class="cls-1" x="125.32" y="78.28" width="2.47" height="3.27" transform="translate(253.11 159.84) rotate(-180)"/><rect class="cls-1" x="121.44" y="78.28" width="2.47" height="3.27" transform="translate(245.36 159.84) rotate(-180)"/><rect class="cls-1" x="117.57" y="78.28" width="2.47" height="3.27" transform="translate(237.61 159.84) rotate(-180)"/><rect class="cls-1" x="113.69" y="78.28" width="2.47" height="3.27" transform="translate(229.86 159.84) rotate(-180)"/><rect class="cls-1" x="109.82" y="78.28" width="2.47" height="3.27" transform="translate(222.11 159.84) rotate(-180)"/><rect class="cls-1" x="102.07" y="78.28" width="2.47" height="3.27" transform="translate(206.61 159.84) rotate(-180)"/><rect class="cls-1" x="105.94" y="78.28" width="2.47" height="3.27" transform="translate(214.36 159.84) rotate(-180)"/><polyline class="cls-2" points="126.56 81.4 126.56 87.64 129.79 90.88 130.74 90.88"/><circle class="cls-2" cx="132.21" cy="90.88" r="1.32"/><polyline class="cls-2" points="103.31 81.4 103.31 87.64 100.07 90.88 99.12 90.88"/><circle class="cls-2" cx="97.65" cy="90.88" r="1.32"/><polyline class="cls-2" points="114.93 81.4 114.93 89.92 111.7 93.15 110.74 93.15"/><circle class="cls-2" cx="109.28" cy="93.15" r="1.32"/><polyline class="cls-2" points="107.18 81.4 107.18 89.92 103.95 93.15 103.95 94.94 107.95 98.94 107.95 100.94"/><polyline class="cls-2" points="122.68 81.4 122.68 91.97 125.92 95.21 129.61 95.21"/><line class="cls-2" x1="118.81" y1="81.4" x2="118.81" y2="96.53"/><circle class="cls-2" cx="131.07" cy="95.21" r="1.32"/><circle class="cls-2" cx="118.81" cy="97.85" r="1.32"/><circle class="cls-2" cx="107.95" cy="102.26" r="1.32"/><line class="cls-2" x1="111.06" y1="81.4" x2="111.06" y2="86.43"/><circle class="cls-2" cx="111.06" cy="87.75" r="1.32"/><rect class="cls-1" x="136.35" y="42.61" width="2.47" height="3.27" transform="translate(181.83 -93.35) rotate(90)"/><rect class="cls-1" x="136.35" y="46.48" width="2.47" height="3.27" transform="translate(185.71 -89.48) rotate(90)"/><rect class="cls-1" x="136.35" y="50.36" width="2.47" height="3.27" transform="translate(189.58 -85.6) rotate(90)"/><rect class="cls-1" x="136.35" y="54.23" width="2.47" height="3.27" transform="translate(193.46 -81.72) rotate(90)"/><rect class="cls-1" x="136.35" y="58.11" width="2.47" height="3.27" transform="translate(197.34 -77.85) rotate(90)"/><rect class="cls-1" x="136.35" y="65.86" width="2.47" height="3.27" transform="translate(205.09 -70.1) rotate(90)"/><rect class="cls-1" x="136.35" y="61.98" width="2.47" height="3.27" transform="translate(201.21 -73.97) rotate(90)"/><polyline class="cls-2" points="139.08 44.24 145.32 44.24 148.55 41.01 148.55 40.05"/><circle class="cls-2" cx="148.55" cy="38.59" r="1.32"/><polyline class="cls-2" points="139.08 67.49 145.32 67.49 148.55 70.73 148.55 71.68"/><circle class="cls-2" cx="148.55" cy="73.15" r="1.32"/><polyline class="cls-2" points="139.08 55.87 147.59 55.87 150.83 59.1 150.83 60.05"/><circle class="cls-2" cx="150.83" cy="61.52" r="1.32"/><polyline class="cls-2" points="139.08 63.62 147.59 63.62 150.83 66.85 152.61 66.85 156.62 62.84 158.61 62.84"/><polyline class="cls-2" points="139.08 48.12 149.65 48.12 152.88 44.88 152.88 41.19"/><line class="cls-2" x1="139.08" y1="51.99" x2="154.2" y2="51.99"/><circle class="cls-2" cx="152.88" cy="39.73" r="1.32"/><circle class="cls-2" cx="155.53" cy="51.99" r="1.32"/><circle class="cls-2" cx="159.93" cy="62.85" r="1.32"/><line class="cls-2" x1="139.08" y1="59.74" x2="144.1" y2="59.74"/><circle class="cls-2" cx="145.42" cy="59.74" r="1.32"/><rect class="cls-1" x="92.03" y="65.86" width="2.47" height="3.27" transform="translate(25.78 160.76) rotate(-90)"/><rect class="cls-1" x="92.03" y="61.98" width="2.47" height="3.27" transform="translate(29.65 156.89) rotate(-90)"/><rect class="cls-1" x="92.03" y="58.11" width="2.47" height="3.27" transform="translate(33.53 153.01) rotate(-90)"/><rect class="cls-1" x="92.03" y="54.23" width="2.47" height="3.27" transform="translate(37.4 149.14) rotate(-90)"/><rect class="cls-1" x="92.03" y="50.36" width="2.47" height="3.27" transform="translate(41.28 145.26) rotate(-90)"/><rect class="cls-1" x="92.03" y="42.61" width="2.47" height="3.27" transform="translate(49.03 137.51) rotate(-90)"/><rect class="cls-1" x="92.03" y="46.48" width="2.47" height="3.27" transform="translate(45.15 141.39) rotate(-90)"/><polyline class="cls-2" points="91.79 67.49 85.55 67.49 82.31 70.73 82.31 71.68"/><circle class="cls-2" cx="82.31" cy="73.15" r="1.32"/><polyline class="cls-2" points="91.79 44.24 85.55 44.24 82.31 41.01 82.31 40.05"/><circle class="cls-2" cx="82.31" cy="38.59" r="1.32"/><polyline class="cls-2" points="91.79 55.87 83.27 55.87 80.03 52.63 80.03 51.68"/><circle class="cls-2" cx="80.04" cy="50.21" r="1.32"/><polyline class="cls-2" points="91.79 48.12 83.27 48.12 80.03 44.88 78.25 44.88 74.25 48.89 72.25 48.89"/><polyline class="cls-2" points="91.79 63.62 81.22 63.62 77.98 66.85 77.98 70.54"/><line class="cls-2" x1="91.79" y1="59.74" x2="76.66" y2="59.74"/><circle class="cls-2" cx="77.98" cy="72.01" r="1.32"/><circle class="cls-2" cx="75.34" cy="59.74" r="1.32"/><circle class="cls-2" cx="70.93" cy="48.89" r="1.32"/><line class="cls-2" x1="91.79" y1="51.99" x2="86.76" y2="51.99"/><circle class="cls-2" cx="85.44" cy="51.99" r="1.32"/><circle class="cls-3" cx="114.99" cy="55.9" r="52.01"/><path class="cls-1" d="M6.2,12.75h.66q3,.66,3,2.68V48.22Q33.4,32.66,37.31,30.42h.83q2.64,0,3.16,3.47,0,2-5.32,4.83Q23.07,47.47,22.5,47.56v.13L41.13,71.33l.18,1v.13q-.57,3.16-3.16,3.16h-.31Q35.9,75.64,32,70L17,51.38h-.13l-7,4.48v17q0,2.46-3.16,3H6.55q-2.37,0-3.16-3V15.92Q4,12.75,6.2,12.75Z"/></svg>